<?xml version="1.0" encoding="UTF-8" standalone="no"?>
<!-- Created with Inkscape (http://www.inkscape.org/) -->

<svg
   width="128"
   height="128"
   viewBox="0 0 128.00001 128"
   id="svg2"
   version="1.1"
   inkscape:version="1.1 (c4e8f9ed74, 2021-05-24)"
   sodipodi:docname="os_arch_cli.svg"
   inkscape:export-filename="/home/rain/minidark/icons/os_arch.png"
   inkscape:export-xdpi="90"
   inkscape:export-ydpi="90"
   xmlns:inkscape="http://www.inkscape.org/namespaces/inkscape"
   xmlns:sodipodi="http://sodipodi.sourceforge.net/DTD/sodipodi-0.dtd"
   xmlns="http://www.w3.org/2000/svg"
   xmlns:svg="http://www.w3.org/2000/svg"
   xmlns:rdf="http://www.w3.org/1999/02/22-rdf-syntax-ns#"
   xmlns:cc="http://creativecommons.org/ns#"
   xmlns:dc="http://purl.org/dc/elements/1.1/">
  <defs
     id="defs4">
    <linearGradient
       id="lg"
       y1="9.90843"
       x2="25.431995"
       x1="34.76569"
       y2="28.426884"
       gradientTransform="matrix(0.9319351,0,0,1.0730361,194.73464,51.063643)"
       gradientUnits="userSpaceOnUse">
      <stop
         stop-color="#fff"
         stop-opacity="0"
         offset="0"
         id="stop2" />
      <stop
         stop-color="#fff"
         stop-opacity=".27451"
         offset="1"
         id="stop4" />
    </linearGradient>
    <linearGradient
       id="lg-3"
       y1="9.90843"
       x2="25.431995"
       x1="34.76569"
       y2="28.426884"
       gradientTransform="matrix(0.9319351,0,0,1.0730361,220.45831,43.517215)"
       gradientUnits="userSpaceOnUse">
      <stop
         stop-color="#fff"
         stop-opacity="0"
         offset="0"
         id="stop2-6" />
      <stop
         stop-color="#fff"
         stop-opacity=".27451"
         offset="1"
         id="stop4-7" />
    </linearGradient>
    <linearGradient
       id="lg-5"
       y1="9.90843"
       x2="25.431995"
       x1="34.76569"
       y2="28.426884"
       gradientTransform="matrix(0.9319351,0,0,1.0730361,31.73376,31.250771)"
       gradientUnits="userSpaceOnUse">
      <stop
         stop-color="#fff"
         stop-opacity="0"
         offset="0"
         id="stop2-3" />
      <stop
         stop-color="#fff"
         stop-opacity=".27451"
         offset="1"
         id="stop4-5" />
    </linearGradient>
  </defs>
  <sodipodi:namedview
     id="base"
     pagecolor="#21252e"
     bordercolor="#bebebe"
     borderopacity="1"
     inkscape:pageopacity="0"
     inkscape:pageshadow="2"
     inkscape:zoom="4.6316685"
     inkscape:cx="88.844873"
     inkscape:cy="71.032717"
     inkscape:document-units="px"
     inkscape:current-layer="text4096"
     showgrid="false"
     inkscape:window-width="939"
     inkscape:window-height="1027"
     inkscape:window-x="967"
     inkscape:window-y="39"
     inkscape:window-maximized="0"
     units="px"
     inkscape:showpageshadow="true"
     showguides="true"
     inkscape:guide-bbox="true"
     inkscape:snap-global="true"
     inkscape:snap-bbox="true"
     inkscape:snap-others="true"
     fit-margin-top="0"
     fit-margin-left="0"
     fit-margin-right="0"
     fit-margin-bottom="0"
     inkscape:pagecheckerboard="0" />
  <metadata
     id="metadata7">
    <rdf:RDF>
      <cc:Work
         rdf:about="">
        <dc:format>image/svg+xml</dc:format>
        <dc:type
           rdf:resource="http://purl.org/dc/dcmitype/StillImage" />
      </cc:Work>
    </rdf:RDF>
  </metadata>
  <g
     inkscape:label="Layer 1"
     inkscape:groupmode="layer"
     id="layer1"
     style="opacity:0.99"
     transform="translate(-163.00088,-19.812872)">
    <path
       d="m 226.99464,51.273663 c -2.849,6.9843 -4.579,11.559 -7.75,18.336 1.944,2.061 4.334,4.453 8.211,7.164 -4.168,-1.715 -7.009,-3.432 -9.133,-5.219 -4.059,8.47 -10.423,20.530997 -23.328,43.718987 10.14,-5.854 18.002,-9.466 25.328,-10.844 -0.314,-1.351 -0.481,-2.819 -0.469,-4.34399 l 0.008,-0.32 c 0.161,-6.498 3.542,-11.495 7.547,-11.156 4.004,0.339 7.122,5.884 6.961,12.38299 -0.031,1.224 -0.173,2.4 -0.414,3.492 7.247,1.418 15.034,5.013 25.039,10.789 -1.973,-3.632 -3.74,-6.905 -5.422,-10.024 -2.649,-2.053 -5.411,-4.724 -11.047,-7.61699 3.874,1.007 6.65,2.170995 8.812,3.46899 -17.098,-31.834987 -18.48,-36.067987 -24.343,-49.827987 v -9e-5 z"
       fill="#1793d1"
       id="path9"
       style="display:inline;fill:#ecf0f1;fill-opacity:1" />
    <g
       aria-label="$"
       id="text4096"
       style="font-size:18.6667px;line-height:1.25;font-family:'Hurmit Nerd Font';-inkscape-font-specification:'Hurmit Nerd Font';text-align:end;letter-spacing:0px;text-anchor:end;fill:#ecf0f1;fill-opacity:0.992157">
      <path
         d="m 226.28101,92.526784 v 1.680003 c -2.128,0.03733 -3.47201,0 -3.47201,3.117339 0,3.042674 1.71734,2.986674 3.47201,3.042674 v 2.8 c -1.15734,-0.0373 -1.792,0 -1.792,-1.43733 H 222.809 c 0,3.11734 1.34401,3.08 3.47201,3.11734 v 1.68 h 1.68 v -1.68 c 2.12801,-0.0373 3.45334,0 3.45334,-3.11734 0,-3.042674 -1.69867,-2.986674 -3.45334,-3.042674 V 95.88679 c 1.15734,0.03733 1.77334,0.560001 1.77334,1.437336 h 1.68 c 0,-3.117339 -1.32533,-3.080005 -3.45334,-3.117339 v -1.680003 z m 0,3.360006 v 2.800006 c -1.15734,-0.03733 -1.792,0 -1.792,-1.36267 0,-1.437336 0.63466,-1.400002 1.792,-1.437336 z m 1.68,7.28001 v -2.8 c 1.15734,0.0373 1.77334,0 1.77334,1.36267 0,1.43733 -0.616,1.4 -1.77334,1.43733 z"
         id="path834" />
    </g>
  </g>
</svg>
