<?xml version="1.0" encoding="UTF-8" standalone="no"?>
<!-- Created with Inkscape (http://www.inkscape.org/) -->

<svg
   width="110mm"
   height="110mm"
   viewBox="0 0 389.76378 389.7638"
   id="svg2"
   version="1.1"
   inkscape:version="1.1 (c4e8f9ed74, 2021-05-24)"
   sodipodi:docname="os_fedora_cli.svg"
   inkscape:export-filename="/home/rain/minidark/icons/os_fedora.png"
   inkscape:export-xdpi="29.556362"
   inkscape:export-ydpi="29.556362"
   xmlns:inkscape="http://www.inkscape.org/namespaces/inkscape"
   xmlns:sodipodi="http://sodipodi.sourceforge.net/DTD/sodipodi-0.dtd"
   xmlns="http://www.w3.org/2000/svg"
   xmlns:svg="http://www.w3.org/2000/svg"
   xmlns:rdf="http://www.w3.org/1999/02/22-rdf-syntax-ns#"
   xmlns:cc="http://creativecommons.org/ns#"
   xmlns:dc="http://purl.org/dc/elements/1.1/">
  <defs
     id="defs4" />
  <sodipodi:namedview
     id="base"
     pagecolor="#21252e"
     bordercolor="#bebebe"
     borderopacity="1"
     inkscape:pageopacity="0"
     inkscape:pageshadow="2"
     inkscape:zoom="2.8824481"
     inkscape:cx="255.33851"
     inkscape:cy="254.64465"
     inkscape:document-units="px"
     inkscape:current-layer="g4177"
     showgrid="false"
     inkscape:window-width="1920"
     inkscape:window-height="1033"
     inkscape:window-x="0"
     inkscape:window-y="47"
     inkscape:window-maximized="0"
     units="mm"
     inkscape:showpageshadow="true"
     showguides="true"
     inkscape:guide-bbox="true"
     inkscape:snap-global="true"
     inkscape:snap-bbox="true"
     inkscape:snap-others="true"
     fit-margin-top="0"
     fit-margin-left="0"
     fit-margin-right="0"
     fit-margin-bottom="0"
     inkscape:pagecheckerboard="0" />
  <metadata
     id="metadata7">
    <rdf:RDF>
      <cc:Work
         rdf:about="">
        <dc:format>image/svg+xml</dc:format>
        <dc:type
           rdf:resource="http://purl.org/dc/dcmitype/StillImage" />
      </cc:Work>
    </rdf:RDF>
  </metadata>
  <g
     inkscape:label="Layer 1"
     inkscape:groupmode="layer"
     id="layer1"
     style="opacity:0.96"
     transform="translate(-39.167521,88.250195)">
    <path
       style="fill:#000000"
       d=""
       id="path4134"
       inkscape:connector-curvature="0" />
    <g
       transform="translate(-141.01382,-425.49872)"
       style="display:inline"
       inkscape:label="debian vector"
       id="layer3">
      <g
         id="g4573"
         transform="translate(131.00657,-3.8976736)">
        <g
           id="g4627"
           style="opacity:0.99">
          <g
             id="g4177"
             transform="matrix(0.52473599,0,0,0.52473599,115.97267,254.77445)">
            <path
               id="path4631"
               style="display:inline;fill:#898989;fill-opacity:1;stroke-width:0.559718"
               d="m 207.85352,103.9375 -4.75977,0.22266 -4.75781,0.2207 -3.3125,0.42187 c -47.36743,6.02814 -84.23351,42.88701 -90.25977,90.24219 l -0.41797,3.29102 -0.20508,4.20703 -0.20312,4.20703 v 41.02734 41.0293 l 0.19922,1.87305 c 0.26026,2.44674 0.87958,4.77417 1.86914,7.02734 l 0.79883,1.82031 1.1875,1.78516 1.1875,1.78516 1.73633,1.73632 1.73437,1.73438 1.78516,1.1875 1.78515,1.18945 1.82032,0.79883 c 2.17331,0.95548 4.78391,1.65856 6.92382,1.86524 l 1.5625,0.15234 41.13086,0.0234 41.13282,0.0254 4.28906,-0.20117 4.28906,-0.20118 3.3125,-0.41992 c 47.3856,-6.02832 84.23497,-42.8765 90.26563,-90.26367 l 0.41992,-3.31055 0.22265,-4.75976 0.22071,-4.75977 -0.22071,-4.75976 -0.22265,-4.75782 -0.41992,-3.3125 c -6.03102,-47.39003 -42.87364,-84.2307 -90.26368,-90.26172 l -3.31054,-0.42187 -4.75977,-0.2207 z m 33.00976,24.76953 2.52344,0.33399 c 1.38771,0.18383 3.60858,0.60872 4.93359,0.94336 l 2.40821,0.60937 1.64257,0.85352 1.64258,0.85546 1.19141,1.0625 1.19336,1.06055 0.82031,1.20899 c 0.45131,0.66458 1.01962,1.70788 1.26367,2.31835 l 0.44336,1.10938 0.10156,1.77148 0.10352,1.76954 -0.33789,1.4375 -0.33789,1.43554 -0.6582,1.23242 -0.65821,1.23438 -1.0625,1.07812 -1.0625,1.08008 -1.28515,0.6836 c -0.70711,0.37614 -1.73573,0.82567 -2.28516,0.99804 l -1,0.3125 -1.87305,0.11914 -1.875,0.1211 -2.71484,-0.33594 -2.7168,-0.33594 h -2.61914 -2.62109 l -1.84961,0.31836 c -1.01728,0.17557 -2.61545,0.55199 -3.55274,0.83594 l -1.70507,0.51562 -2.08399,1.04493 -2.08594,1.04297 -1.62695,1.20703 c -3.28806,2.43794 -5.80144,5.39233 -7.64453,8.98828 l -1.12109,2.1875 -0.54297,1.73437 c -0.29949,0.95406 -0.68465,2.53604 -0.85547,3.51563 l -0.31055,1.78125 v 12.90429 12.90625 l 0.3418,0.72071 0.34179,0.7207 0.73438,0.56055 0.73438,0.56054 10.22265,0.11914 10.2207,0.1211 1.14649,0.36914 c 0.63,0.20263 1.66878,0.64379 2.30859,0.98242 l 1.16211,0.61719 1.07617,1.02344 c 1.27424,1.21536 2.29058,2.75409 2.95508,4.47265 l 0.48242,1.25 0.0176,2.39453 0.0156,2.39649 -0.48047,1.38867 -0.48047,1.39063 -1.03125,1.46679 -1.0293,1.46875 -1.09375,0.81641 c -1.20756,0.90212 -2.73225,1.71213 -4.00586,2.12695 l -0.83398,0.27149 -11.34961,0.11718 -11.35156,0.11524 -0.125,14.99609 -0.12305,14.99414 -0.43164,2.70899 c -1.4119,8.867 -4.53183,16.10676 -10.00586,23.2207 l -1.36328,1.76953 -2.6211,2.60352 -2.62304,2.60351 -1.99219,1.49805 c -6.85913,5.1505 -14.42477,8.33016 -22.67969,9.5332 l -2.39453,0.34961 -3.54101,0.0762 -3.54102,0.0762 -1.74805,-0.19727 c -4.055,-0.45856 -8.09962,-1.54535 -10.22656,-2.74609 l -1.14648,-0.64649 -1.68555,-1.67969 -1.6875,-1.68164 -0.63477,-1.35351 -0.63671,-1.35352 -0.25391,-1.25 -0.25586,-1.25 0.12305,-1.45703 0.12304,-1.45898 0.42578,-1.23243 c 0.59799,-1.73728 1.31899,-2.88439 2.61133,-4.15625 l 1.11719,-1.10156 1.31445,-0.64258 c 0.72267,-0.35381 1.88995,-0.79196 2.59375,-0.97265 l 1.2793,-0.32813 h 1.87695 c 1.03212,0 3.12763,0.14866 4.65625,0.33203 l 2.7793,0.33399 2.8125,-0.12305 2.81055,-0.12109 1.76953,-0.40235 c 3.48339,-0.79006 6.00998,-1.88842 9.07422,-3.94336 l 1.86133,-1.24609 1.61132,-1.59961 c 2.78628,-2.76692 4.55596,-5.43122 5.98438,-9.00391 l 0.8125,-2.0332 0.46289,-2.08203 0.46289,-2.08398 0.0859,-12.72852 0.0859,-12.72851 -0.24414,-0.90626 -0.24218,-0.90429 -0.76563,-0.76563 -0.76562,-0.76562 -0.83008,-0.23047 -0.82813,-0.22852 -9.3789,-0.002 H 167.33 l -1.19141,-0.31055 c -0.65486,-0.17056 -1.77511,-0.60467 -2.49023,-0.96484 l -1.30078,-0.65625 -1.37696,-1.40039 -1.3789,-1.40039 -0.6543,-1.33008 -0.65234,-1.33203 -0.3086,-1.45703 c -0.38416,-1.82166 -0.38665,-2.95519 -0.0137,-4.71485 l 0.29102,-1.38085 0.56054,-1.11719 c 0.30783,-0.61499 0.92306,-1.60466 1.36719,-2.19922 l 0.80664,-1.08203 1.37891,-0.98242 1.37695,-0.98243 1.38477,-0.53906 1.38476,-0.53906 11.3418,-0.0625 11.33984,-0.0625 0.26953,-0.22461 0.26954,-0.22266 v -14.35351 -14.35352 l 0.2207,-2.02148 c 0.12069,-1.11231 0.45732,-3.19318 0.74804,-4.625 l 0.52735,-2.60352 0.92383,-2.8125 0.92187,-2.81055 1.53516,-3.13281 1.53515,-3.13281 1.66797,-2.49023 c 7.73668,-11.54478 19.61531,-19.1319 33.26172,-21.2461 l 2.08203,-0.32422 3.85352,-0.11523 z m -7.71875,106.48242 h 5.75977 v 5.75977 c 7.29598,0.128 11.83984,0.001 11.83984,10.68945 h -5.75976 c 0,-3.00799 -2.11209,-4.80169 -6.08008,-4.92969 v 9.60157 c 6.01599,0.192 11.83984,-3.4e-4 11.83984,10.43164 0,10.68798 -4.54386,10.5595 -11.83984,10.6875 v 5.75976 h -5.75977 v -5.75976 c -7.29598,-0.128 -11.9043,4.8e-4 -11.9043,-10.6875 H 227 c 0,4.92799 2.17654,4.79973 6.14453,4.92773 v -9.59961 c -6.01599,-0.192 -11.9043,3.4e-4 -11.9043,-10.43164 0,-10.68798 4.60832,-10.56145 11.9043,-10.68945 z m 0,11.51953 c -3.96799,0.128 -6.14453,0.002 -6.14453,4.92969 0,4.67199 2.17654,4.54388 6.14453,4.67188 z m 5.75977,15.36133 v 9.59961 c 3.96799,-0.128 6.08008,2.6e-4 6.08008,-4.92773 0,-4.67199 -2.11209,-4.54388 -6.08008,-4.67188 z"
               transform="matrix(1.7866128,0,0,1.7866128,-127.29811,164.60039)" />
            <path
               id="path4629"
               style="fill:#ecf0f1;stroke-width:0.559718"
               d="m 210.5332,104.32227 c -51.8578,-0.87254 -101.78977,38.01759 -105.90234,96.46679 l -0.23438,3.33399 0.0664,43.94336 0.0644,43.94336 0.56055,2.03711 0.5625,2.03515 0.93359,1.9707 c 0.51311,1.08317 1.40747,2.65592 1.98829,3.4961 l 1.05664,1.52734 1.82226,1.77344 c 3.49247,3.39737 7.4594,5.46948 12.06055,6.30078 l 1.63281,0.29492 43.63281,0.0176 43.63086,0.0176 2.91602,-0.2168 c 95.47964,-7.13558 130.9452,-128.82101 54.33984,-186.4414 -18.25233,-13.72889 -38.83867,-20.15858 -59.13086,-20.5 z m 27.80469,24.02929 3.07031,0.24024 3.07227,0.24218 2.60351,0.53321 2.60352,0.5332 3.22852,1.05469 c 5.68367,1.85824 10.39663,4.27842 14.83593,7.61914 l 2.13672,1.60937 2.36719,2.28907 c 2.63078,2.54631 4.78653,5.12989 6.82812,8.17968 l 1.35743,2.0293 1.64453,3.33203 1.64453,3.33203 0.92383,2.81055 0.92187,2.8125 0.54102,2.70703 c 5.43194,27.24947 -12.34956,53.0736 -39.80274,57.80469 l -2.45898,0.42383 -4.47656,0.2207 c -2.46274,0.12145 -9.41748,0.26401 -15.45313,0.31836 l -10.97266,0.0996 -0.0859,15.44726 -0.0879,15.44727 -0.33985,1.97852 c -1.5306,8.88314 -4.98995,16.61485 -10.49023,23.4414 l -1.6875,2.09375 -2.37305,2.2793 c -3.98508,3.82857 -7.64687,6.37778 -12.73437,8.86328 l -2.88868,1.41016 -2.89453,0.94921 -2.89453,0.94922 -2.54883,0.50977 c -1.40188,0.28033 -3.48539,0.60499 -4.63085,0.7207 -26.06311,2.63277 -49.556,-15.59917 -53.5254,-41.53711 l -0.31836,-2.07422 -0.12695,-3.33203 -0.12695,-3.33203 0.23633,-2.5625 c 0.13072,-1.40963 0.47916,-3.79926 0.77343,-5.31054 l 0.53516,-2.74805 1.00391,-3.04883 1.0039,-3.04688 1.46485,-2.99218 1.46484,-2.99219 1.56055,-2.34375 c 7.51709,-11.29835 18.77057,-18.76258 31.96289,-21.19922 l 2.83984,-0.52344 5.73047,-0.30468 5.73047,-0.30469 9.93164,-0.002 9.92969,-0.002 0.084,-15.25586 0.084,-15.2539 0.36523,-2.1875 c 3.89805,-23.29924 21.94195,-39.88157 45.36523,-41.69141 z m 0.10352,23.62696 -2.12891,0.18554 c -6.42341,0.55929 -11.79064,3.12977 -16.26562,7.79102 l -1.7129,1.78515 -1.11523,1.71875 c -1.91406,2.94913 -2.92434,5.33759 -3.72266,8.79883 l -0.43164,1.875 -0.082,13.08008 -0.0801,13.08008 0.44532,0.91797 0.44336,0.91797 0.76562,0.47461 0.76758,0.47656 10.30859,0.125 c 5.67002,0.068 11.57473,0.0985 13.1211,0.0664 l 2.81054,-0.0586 1.71875,-0.33398 c 3.44401,-0.66979 6.76058,-2.06302 9.83985,-4.13282 l 1.5625,-1.05078 1.99414,-1.99219 1.99219,-1.99414 1.05078,-1.56445 c 2.08462,-3.10133 3.45687,-6.37814 4.16406,-9.95117 l 0.35742,-1.8125 0.004,-3.02148 0.004,-3.01954 -0.37304,-1.76953 c -0.74731,-3.55553 -1.95117,-6.49033 -3.88868,-9.47656 l -1.08007,-1.66602 -2.42969,-2.39453 -2.42774,-2.39453 -1.80859,-1.11328 c -0.99516,-0.61188 -2.54081,-1.42847 -3.43359,-1.81445 l -1.62305,-0.70117 -1.54688,-0.32618 c -0.85097,-0.17901 -2.81874,-0.41135 -4.37304,-0.51562 z m -78.09961,74.24218 -1.89063,0.43946 c -10.49998,2.44408 -18.35645,10.7595 -20.10156,21.27148 l -0.23047,1.38477 0.002,2.81054 0.002,2.8125 0.43945,2.13086 c 0.75399,3.658 1.84161,6.26001 3.94336,9.42774 l 1.17383,1.76953 1.97851,1.98633 1.97852,1.98437 1.77148,1.16797 c 2.018,1.33144 3.71551,2.20945 5.51953,2.85742 l 1.24805,0.44922 1.97852,0.28516 1.97851,0.28515 3.14844,0.0215 3.14844,0.0234 1.84961,-0.32226 c 10.25715,-1.7887 18.17224,-9.4227 20.61523,-19.88086 l 0.36524,-1.56055 0.0801,-13.01757 c 0.0441,-7.15912 0.0229,-13.32255 -0.0469,-13.69727 l -0.12695,-0.68164 -0.625,-0.71094 -0.625,-0.71289 -0.66602,-0.20898 -0.66797,-0.20704 -13.11914,-0.0527 z m 72.76562,8.88086 h 5.75977 v 5.75977 c 7.29598,0.128 11.83984,-4.8e-4 11.83984,10.6875 h -5.75976 c 0,-3.008 -2.11209,-4.79974 -6.08008,-4.92774 v 9.59961 c 6.01599,0.192 11.83984,-3.4e-4 11.83984,10.43164 0,10.68798 -4.54386,10.56146 -11.83984,10.68946 v 5.75976 h -5.75977 v -5.75976 c -7.29598,-0.128 -11.9043,-10e-4 -11.9043,-10.68946 h 5.75977 c 0,4.92799 2.17654,4.79974 6.14453,4.92774 v -9.59961 c -6.01599,-0.192 -11.9043,3.4e-4 -11.9043,-10.43164 10e-6,-10.68798 4.60832,-10.5595 11.9043,-10.6875 z m 0,11.51953 c -3.96799,0.128 -6.14453,-2.5e-4 -6.14453,4.92774 0,4.67199 2.17654,4.54387 6.14453,4.67187 z m 5.75977,15.35938 v 9.59961 c 3.96799,-0.128 6.08008,2.5e-4 6.08008,-4.92774 0,-4.67199 -2.11209,-4.54387 -6.08008,-4.67187 z"
               transform="matrix(1.7866128,0,0,1.7866128,-127.29811,164.60039)" />
          </g>
        </g>
      </g>
    </g>
  </g>
</svg>
