<?xml version="1.0" encoding="UTF-8" standalone="no"?>
<!-- Created with Inkscape (http://www.inkscape.org/) -->

<svg
   width="110mm"
   height="110mm"
   viewBox="0 0 389.76378 389.7638"
   id="svg2"
   version="1.1"
   inkscape:version="1.1 (c4e8f9ed74, 2021-05-24)"
   sodipodi:docname="os_slackware_cli.svg"
   inkscape:export-filename="/home/rain/minidark/icons/os_slackware.png"
   inkscape:export-xdpi="29.556362"
   inkscape:export-ydpi="29.556362"
   xmlns:inkscape="http://www.inkscape.org/namespaces/inkscape"
   xmlns:sodipodi="http://sodipodi.sourceforge.net/DTD/sodipodi-0.dtd"
   xmlns:xlink="http://www.w3.org/1999/xlink"
   xmlns="http://www.w3.org/2000/svg"
   xmlns:svg="http://www.w3.org/2000/svg"
   xmlns:rdf="http://www.w3.org/1999/02/22-rdf-syntax-ns#"
   xmlns:cc="http://creativecommons.org/ns#"
   xmlns:dc="http://purl.org/dc/elements/1.1/">
  <defs
     id="defs4">
    <pattern
       patternTransform="matrix(0.4295427,0,0,0.4295427,-4.3554687e-6,-4.3457032e-7)"
       id="pattern4486"
       xlink:href="#pattern4481"
       inkscape:collect="always" />
    <pattern
       patternTransform="matrix(0.4295427,0,0,0.4295427,-130.66779,-129.37468)"
       id="pattern4481"
       xlink:href="#pattern4467"
       inkscape:collect="always" />
    <linearGradient
       id="linearGradient3588">
      <stop
         id="stop3590"
         offset="0"
         style="stop-color:#bfe699;stop-opacity:1;" />
      <stop
         id="stop3592"
         offset="1"
         style="stop-color:#313e24;stop-opacity:1;" />
    </linearGradient>
    <linearGradient
       id="linearGradient3570">
      <stop
         style="stop-color:#e5ffcb;stop-opacity:1;"
         offset="0"
         id="stop3572" />
      <stop
         style="stop-color:#bfff80;stop-opacity:1;"
         offset="1"
         id="stop3574" />
    </linearGradient>
    <linearGradient
       id="linearGradient3303">
      <stop
         id="stop3305"
         offset="0"
         style="stop-color:#bfff80;stop-opacity:1;" />
      <stop
         id="stop3307"
         offset="1"
         style="stop-color:#6a8b4a;stop-opacity:1;" />
    </linearGradient>
    <linearGradient
       id="linearGradient3431">
      <stop
         style="stop-color:#3d3d3d;stop-opacity:1;"
         offset="0"
         id="stop3433" />
      <stop
         style="stop-color:#000000;stop-opacity:0.11400651;"
         offset="1"
         id="stop3435" />
    </linearGradient>
    <linearGradient
       id="linearGradient3349">
      <stop
         id="stop3351"
         offset="0"
         style="stop-color:#d3d3d3;stop-opacity:1;" />
      <stop
         id="stop3353"
         offset="1"
         style="stop-color:#ffffff;stop-opacity:1;" />
    </linearGradient>
    <linearGradient
       id="linearGradient3312">
      <stop
         id="stop3314"
         offset="0"
         style="stop-color:#c7f994;stop-opacity:1;" />
      <stop
         id="stop3316"
         offset="1"
         style="stop-color:#87cf3e;stop-opacity:1;" />
    </linearGradient>
    <linearGradient
       y2="408.57144"
       x2="116.42857"
       y1="362.14285"
       x1="61.42857"
       gradientUnits="userSpaceOnUse"
       id="linearGradient3335"
       xlink:href="#linearGradient3312"
       inkscape:collect="always" />
    <linearGradient
       y2="348.57098"
       x2="67.175148"
       y1="424.33243"
       x1="140.66374"
       gradientUnits="userSpaceOnUse"
       id="linearGradient3374"
       xlink:href="#linearGradient3349"
       inkscape:collect="always" />
    <linearGradient
       gradientTransform="translate(0,-9.49911)"
       y2="408.57144"
       x2="116.42857"
       y1="362.14285"
       x1="61.42857"
       gradientUnits="userSpaceOnUse"
       id="linearGradient3377"
       xlink:href="#linearGradient3312"
       inkscape:collect="always" />
    <linearGradient
       y2="408.57144"
       x2="116.42857"
       y1="362.14285"
       x1="61.42857"
       gradientTransform="matrix(1,0,0,-1,0,649.49911)"
       gradientUnits="userSpaceOnUse"
       id="linearGradient3416"
       xlink:href="#linearGradient3312"
       inkscape:collect="always" />
    <linearGradient
       y2="375.87961"
       x2="113.64215"
       y1="416.38858"
       x1="70.491508"
       spreadMethod="pad"
       gradientUnits="userSpaceOnUse"
       id="linearGradient2259"
       xlink:href="#linearGradient3431"
       inkscape:collect="always" />
    <linearGradient
       y2="323.98651"
       x2="149.90654"
       y1="216.34912"
       x1="26.795013"
       gradientUnits="userSpaceOnUse"
       id="linearGradient3737"
       xlink:href="#linearGradient3588"
       inkscape:collect="always" />
    <pattern
       id="pattern4467"
       patternTransform="translate(-297.8418,85.357452)"
       height="256"
       width="256"
       patternUnits="userSpaceOnUse">
      <image
         y="0"
         x="0"
         id="image4464"
         height="256"
         width="256"
         xlink:href="../../../../../../rain/minidark/metal5.jpg" />
    </pattern>
    <pattern
       id="pattern4483"
       patternTransform="translate(-130.66779,-129.37468)"
       height="109.96293"
       width="109.96293"
       patternUnits="userSpaceOnUse">
      <rect
         style="fill:url(#pattern4486);stroke:none"
         width="109.96293"
         height="109.96293"
         x="0"
         y="0"
         id="rect4470" />
    </pattern>
    <linearGradient
       y2="379.95963"
       x2="100.47015"
       y1="426.11398"
       x1="148.5945"
       gradientTransform="matrix(1.0484996,0,0,1.0484996,59.525242,85.095989)"
       gradientUnits="userSpaceOnUse"
       id="linearGradient3000"
       xlink:href="#linearGradient3349"
       inkscape:collect="always" />
    <linearGradient
       y2="408.57144"
       x2="116.42857"
       y1="362.14285"
       x1="61.42857"
       gradientTransform="matrix(1.0484996,0,0,1.0484996,59.525242,75.136176)"
       gradientUnits="userSpaceOnUse"
       id="linearGradient3006"
       xlink:href="#linearGradient3312"
       inkscape:collect="always" />
    <linearGradient
       y2="408.57144"
       x2="116.42857"
       y1="362.14285"
       x1="61.42857"
       gradientTransform="matrix(1.0484996,0,0,1.0484996,210.01137,213.49817)"
       gradientUnits="userSpaceOnUse"
       id="linearGradient4003"
       xlink:href="#linearGradient3312"
       inkscape:collect="always" />
    <linearGradient
       y2="379.95963"
       x2="100.47015"
       y1="426.11398"
       x1="148.5945"
       gradientTransform="matrix(1.0484996,0,0,1.0484996,210.01137,223.45798)"
       gradientUnits="userSpaceOnUse"
       id="linearGradient4007"
       xlink:href="#linearGradient3349"
       inkscape:collect="always" />
  </defs>
  <sodipodi:namedview
     id="base"
     pagecolor="#21252e"
     bordercolor="#bebebe"
     borderopacity="1"
     inkscape:pageopacity="0"
     inkscape:pageshadow="2"
     inkscape:zoom="0.9270892"
     inkscape:cx="153.70689"
     inkscape:cy="149.93164"
     inkscape:document-units="px"
     inkscape:current-layer="g6445"
     showgrid="false"
     inkscape:window-width="939"
     inkscape:window-height="1027"
     inkscape:window-x="967"
     inkscape:window-y="39"
     inkscape:window-maximized="0"
     units="mm"
     inkscape:showpageshadow="false"
     showguides="true"
     inkscape:guide-bbox="true"
     inkscape:snap-global="false"
     inkscape:snap-bbox="true"
     inkscape:snap-others="true"
     fit-margin-top="0"
     fit-margin-left="0"
     fit-margin-right="0"
     fit-margin-bottom="0"
     inkscape:pagecheckerboard="0" />
  <metadata
     id="metadata7">
    <rdf:RDF>
      <cc:Work
         rdf:about="">
        <dc:format>image/svg+xml</dc:format>
        <dc:type
           rdf:resource="http://purl.org/dc/dcmitype/StillImage" />
      </cc:Work>
    </rdf:RDF>
  </metadata>
  <g
     inkscape:label="Layer 1"
     inkscape:groupmode="layer"
     id="layer1"
     style="opacity:0.96"
     transform="translate(-39.167521,88.250195)">
    <path
       style="fill:#000000"
       d=""
       id="path4134"
       inkscape:connector-curvature="0" />
    <g
       transform="translate(-141.01382,-425.49872)"
       style="display:inline"
       inkscape:label="debian vector"
       id="layer3">
      <g
         id="g4573"
         transform="translate(131.00657,-3.8976736)">
        <g
           id="g4627"
           style="opacity:0.99">
          <g
             id="g4740"
             transform="translate(-34.291185,268.4348)">
            <g
               transform="translate(380.29592,62.962549)"
               id="g4109">
              <g
                 transform="matrix(0.77230011,0,0,0.77230011,-239.76484,-6.9998595)"
                 style="fill:#ffffff;fill-opacity:1"
                 id="g4077">
                <g
                   id="layer1-5"
                   inkscape:label="Layer 1"
                   transform="matrix(1.2948334,0,0,1.2948334,-524.75052,-387.7468)">
                  <g
                     transform="translate(105.76257,-1.6247732)"
                     id="g6445">
                    <path
                       id="path4191"
                       style="fill:#ecf0f1;fill-opacity:1;stroke:none;stroke-width:10.9867;stroke-linecap:round;stroke-linejoin:miter;stroke-miterlimit:4;stroke-dasharray:none;stroke-opacity:1"
                       d="M 207.875 103.9375 A 103.93743 103.93743 0 0 0 103.9375 207.875 A 103.93743 103.93743 0 0 0 207.875 311.81055 A 103.93743 103.93743 0 0 0 311.81055 207.875 A 103.93743 103.93743 0 0 0 207.875 103.9375 z M 205.91016 151.34766 C 211.04968 151.34766 216.68265 151.79368 222.81055 152.68359 C 228.93844 153.53482 235.46226 154.79132 242.38086 156.45508 L 242.38086 174.91211 L 234.00391 174.91211 C 233.16379 168.7988 230.54473 164.38812 226.14648 161.67969 C 221.79766 158.93256 215.14983 157.55859 206.20508 157.55859 C 198.39696 157.55859 192.44354 158.81511 188.3418 161.33008 C 184.28949 163.80637 182.26367 167.42449 182.26367 172.18359 C 182.26367 176.32363 183.79542 179.57534 186.85938 181.93555 C 189.92332 184.29575 196.4204 186.63552 206.35352 188.95703 L 220.06836 192.15039 C 230.10032 194.51059 237.24025 197.52739 241.49023 201.20312 C 245.78965 204.84016 247.93945 209.73472 247.93945 215.88672 C 247.93945 224.28286 244.50589 230.60913 237.63672 234.86523 C 230.76754 239.12134 220.53734 241.24805 206.94727 241.24805 C 200.86878 241.24805 194.66736 240.76612 188.3418 239.79883 C 182.06565 238.83153 175.66581 237.36 169.14258 235.38672 L 169.14258 215.6543 L 177.66797 215.71289 C 177.91506 222.2905 180.33573 227.16515 184.93164 230.33789 C 189.57698 233.47193 196.61966 235.03906 206.05859 235.03906 C 214.85508 235.03906 221.55057 233.68499 226.14648 230.97656 C 230.79182 228.22944 233.11523 224.24293 233.11523 219.01953 C 233.11523 214.84081 231.70552 211.63084 228.88867 209.38672 C 226.12123 207.14259 220.24027 204.95618 211.24609 202.82812 L 196.64453 199.4043 C 186.06897 196.88933 178.60664 193.75506 174.25781 190.00195 C 169.9584 186.24883 167.80859 181.10142 167.80859 174.5625 C 167.80859 167.21104 171.14492 161.50404 177.81641 157.44141 C 184.4879 153.37876 193.85205 151.34766 205.91016 151.34766 z M 148.16992 228.69141 L 154.39258 228.69141 L 154.39258 251.8418 L 267.57812 251.8418 L 267.57812 258.06445 L 148.16992 258.06445 L 148.16992 228.69141 z M 206.57422 263.13477 L 211.375 263.13477 L 211.375 267.93555 C 217.455 268.04221 221.24023 267.93513 221.24023 276.8418 L 216.44141 276.8418 C 216.44141 274.33513 214.68167 272.84104 211.375 272.73438 L 211.375 280.73438 C 216.38833 280.89437 221.24023 280.7344 221.24023 289.42773 C 221.24023 298.3344 217.455 298.22732 211.375 298.33398 L 211.375 303.13477 L 206.57422 303.13477 L 206.57422 298.33398 C 200.49422 298.22732 196.6543 298.3344 196.6543 289.42773 L 201.45508 289.42773 C 201.45508 293.5344 203.26755 293.42849 206.57422 293.53516 L 206.57422 285.53516 C 201.56089 285.37516 196.6543 285.53513 196.6543 276.8418 C 196.6543 267.93513 200.49422 268.04221 206.57422 267.93555 L 206.57422 263.13477 z M 206.57422 272.73438 C 203.26755 272.84104 201.45508 272.73513 201.45508 276.8418 C 201.45508 280.73513 203.26755 280.62771 206.57422 280.73438 L 206.57422 272.73438 z M 211.375 285.53516 L 211.375 293.53516 C 214.68167 293.42849 216.44141 293.5344 216.44141 289.42773 C 216.44141 285.5344 214.68167 285.64182 211.375 285.53516 z "
                       transform="matrix(0.93750008,0,0,0.93750008,242.4372,317.83039)" />
                  </g>
                </g>
              </g>
            </g>
          </g>
        </g>
      </g>
    </g>
  </g>
</svg>
