<?xml version="1.0" encoding="UTF-8" standalone="no"?>
<!-- Created with Inkscape (http://www.inkscape.org/) -->

<svg
   width="110mm"
   height="110mm"
   viewBox="0 0 389.76378 389.7638"
   id="svg2"
   version="1.1"
   inkscape:version="1.1 (c4e8f9ed74, 2021-05-24)"
   sodipodi:docname="os_ubuntu_cli.svg"
   inkscape:export-filename="/home/rain/minidark/icons/os_ubuntu.png"
   inkscape:export-xdpi="29.556362"
   inkscape:export-ydpi="29.556362"
   xmlns:inkscape="http://www.inkscape.org/namespaces/inkscape"
   xmlns:sodipodi="http://sodipodi.sourceforge.net/DTD/sodipodi-0.dtd"
   xmlns:xlink="http://www.w3.org/1999/xlink"
   xmlns="http://www.w3.org/2000/svg"
   xmlns:svg="http://www.w3.org/2000/svg"
   xmlns:rdf="http://www.w3.org/1999/02/22-rdf-syntax-ns#"
   xmlns:cc="http://creativecommons.org/ns#"
   xmlns:dc="http://purl.org/dc/elements/1.1/">
  <defs
     id="defs4">
    <pattern
       patternTransform="matrix(0.4295427,0,0,0.4295427,-4.3554687e-6,-4.3457032e-7)"
       id="pattern4486"
       xlink:href="#pattern4481"
       inkscape:collect="always" />
    <pattern
       patternTransform="matrix(0.4295427,0,0,0.4295427,-130.66779,-129.37468)"
       id="pattern4481"
       xlink:href="#pattern4467"
       inkscape:collect="always" />
    <linearGradient
       id="linearGradient3588">
      <stop
         id="stop3590"
         offset="0"
         style="stop-color:#bfe699;stop-opacity:1;" />
      <stop
         id="stop3592"
         offset="1"
         style="stop-color:#313e24;stop-opacity:1;" />
    </linearGradient>
    <linearGradient
       id="linearGradient3570">
      <stop
         style="stop-color:#e5ffcb;stop-opacity:1;"
         offset="0"
         id="stop3572" />
      <stop
         style="stop-color:#bfff80;stop-opacity:1;"
         offset="1"
         id="stop3574" />
    </linearGradient>
    <linearGradient
       id="linearGradient3303">
      <stop
         id="stop3305"
         offset="0"
         style="stop-color:#bfff80;stop-opacity:1;" />
      <stop
         id="stop3307"
         offset="1"
         style="stop-color:#6a8b4a;stop-opacity:1;" />
    </linearGradient>
    <linearGradient
       id="linearGradient3431">
      <stop
         style="stop-color:#3d3d3d;stop-opacity:1;"
         offset="0"
         id="stop3433" />
      <stop
         style="stop-color:#000000;stop-opacity:0.11400651;"
         offset="1"
         id="stop3435" />
    </linearGradient>
    <linearGradient
       id="linearGradient3349">
      <stop
         id="stop3351"
         offset="0"
         style="stop-color:#d3d3d3;stop-opacity:1;" />
      <stop
         id="stop3353"
         offset="1"
         style="stop-color:#ffffff;stop-opacity:1;" />
    </linearGradient>
    <linearGradient
       id="linearGradient3312">
      <stop
         id="stop3314"
         offset="0"
         style="stop-color:#c7f994;stop-opacity:1;" />
      <stop
         id="stop3316"
         offset="1"
         style="stop-color:#87cf3e;stop-opacity:1;" />
    </linearGradient>
    <linearGradient
       y2="408.57144"
       x2="116.42857"
       y1="362.14285"
       x1="61.42857"
       gradientUnits="userSpaceOnUse"
       id="linearGradient3335"
       xlink:href="#linearGradient3312"
       inkscape:collect="always" />
    <linearGradient
       y2="348.57098"
       x2="67.175148"
       y1="424.33243"
       x1="140.66374"
       gradientUnits="userSpaceOnUse"
       id="linearGradient3374"
       xlink:href="#linearGradient3349"
       inkscape:collect="always" />
    <linearGradient
       gradientTransform="translate(0,-9.49911)"
       y2="408.57144"
       x2="116.42857"
       y1="362.14285"
       x1="61.42857"
       gradientUnits="userSpaceOnUse"
       id="linearGradient3377"
       xlink:href="#linearGradient3312"
       inkscape:collect="always" />
    <linearGradient
       y2="408.57144"
       x2="116.42857"
       y1="362.14285"
       x1="61.42857"
       gradientTransform="matrix(1,0,0,-1,0,649.49911)"
       gradientUnits="userSpaceOnUse"
       id="linearGradient3416"
       xlink:href="#linearGradient3312"
       inkscape:collect="always" />
    <linearGradient
       y2="375.87961"
       x2="113.64215"
       y1="416.38858"
       x1="70.491508"
       spreadMethod="pad"
       gradientUnits="userSpaceOnUse"
       id="linearGradient2259"
       xlink:href="#linearGradient3431"
       inkscape:collect="always" />
    <linearGradient
       y2="323.98651"
       x2="149.90654"
       y1="216.34912"
       x1="26.795013"
       gradientUnits="userSpaceOnUse"
       id="linearGradient3737"
       xlink:href="#linearGradient3588"
       inkscape:collect="always" />
    <pattern
       id="pattern4467"
       patternTransform="translate(-297.8418,85.357452)"
       height="256"
       width="256"
       patternUnits="userSpaceOnUse">
      <image
         y="0"
         x="0"
         id="image4464"
         height="256"
         width="256"
         xlink:href="../../../../../../rain/minidark/metal5.jpg" />
    </pattern>
    <pattern
       id="pattern4483"
       patternTransform="translate(-130.66779,-129.37468)"
       height="109.96293"
       width="109.96293"
       patternUnits="userSpaceOnUse">
      <rect
         style="fill:url(#pattern4486);stroke:none"
         width="109.96293"
         height="109.96293"
         x="0"
         y="0"
         id="rect4470" />
    </pattern>
    <linearGradient
       y2="379.95963"
       x2="100.47015"
       y1="426.11398"
       x1="148.5945"
       gradientTransform="matrix(1.0484996,0,0,1.0484996,59.525242,85.095989)"
       gradientUnits="userSpaceOnUse"
       id="linearGradient3000"
       xlink:href="#linearGradient3349"
       inkscape:collect="always" />
    <linearGradient
       y2="408.57144"
       x2="116.42857"
       y1="362.14285"
       x1="61.42857"
       gradientTransform="matrix(1.0484996,0,0,1.0484996,59.525242,75.136176)"
       gradientUnits="userSpaceOnUse"
       id="linearGradient3006"
       xlink:href="#linearGradient3312"
       inkscape:collect="always" />
    <linearGradient
       y2="408.57144"
       x2="116.42857"
       y1="362.14285"
       x1="61.42857"
       gradientTransform="matrix(1.0484996,0,0,1.0484996,210.01137,213.49817)"
       gradientUnits="userSpaceOnUse"
       id="linearGradient4003"
       xlink:href="#linearGradient3312"
       inkscape:collect="always" />
    <linearGradient
       y2="379.95963"
       x2="100.47015"
       y1="426.11398"
       x1="148.5945"
       gradientTransform="matrix(1.0484996,0,0,1.0484996,210.01137,223.45798)"
       gradientUnits="userSpaceOnUse"
       id="linearGradient4007"
       xlink:href="#linearGradient3349"
       inkscape:collect="always" />
  </defs>
  <sodipodi:namedview
     id="base"
     pagecolor="#21252e"
     bordercolor="#bebebe"
     borderopacity="1"
     inkscape:pageopacity="0"
     inkscape:pageshadow="2"
     inkscape:zoom="0.92708917"
     inkscape:cx="151.54961"
     inkscape:cy="184.44828"
     inkscape:document-units="px"
     inkscape:current-layer="g6445"
     showgrid="false"
     inkscape:window-width="939"
     inkscape:window-height="1027"
     inkscape:window-x="967"
     inkscape:window-y="39"
     inkscape:window-maximized="0"
     units="mm"
     inkscape:showpageshadow="false"
     showguides="true"
     inkscape:guide-bbox="true"
     inkscape:snap-global="false"
     inkscape:snap-bbox="true"
     inkscape:snap-others="true"
     fit-margin-top="0"
     fit-margin-left="0"
     fit-margin-right="0"
     fit-margin-bottom="0"
     inkscape:pagecheckerboard="0" />
  <metadata
     id="metadata7">
    <rdf:RDF>
      <cc:Work
         rdf:about="">
        <dc:format>image/svg+xml</dc:format>
        <dc:type
           rdf:resource="http://purl.org/dc/dcmitype/StillImage" />
      </cc:Work>
    </rdf:RDF>
  </metadata>
  <g
     inkscape:label="Layer 1"
     inkscape:groupmode="layer"
     id="layer1"
     style="opacity:0.96"
     transform="translate(-39.167521,88.250195)">
    <path
       style="fill:#000000"
       d=""
       id="path4134"
       inkscape:connector-curvature="0" />
    <g
       transform="translate(-141.01382,-425.49872)"
       style="display:inline"
       inkscape:label="debian vector"
       id="layer3">
      <g
         id="g4573"
         transform="translate(131.00657,-3.8976736)">
        <g
           id="g4627"
           style="opacity:0.99">
          <g
             id="g4740"
             transform="translate(-34.291185,268.4348)">
            <g
               transform="translate(380.29592,62.962549)"
               id="g4109">
              <g
                 transform="matrix(0.77230011,0,0,0.77230011,-239.76484,-6.9998595)"
                 style="fill:#ffffff;fill-opacity:1"
                 id="g4077">
                <g
                   id="layer1-5"
                   inkscape:label="Layer 1"
                   transform="matrix(1.2948334,0,0,1.2948334,-524.75052,-387.7468)">
                  <g
                     transform="translate(105.76257,-1.6247732)"
                     id="g6445">
                    <path
                       id="path4177"
                       style="fill:#ecf0f1;stroke-width:1.06667"
                       d="M 207.875 103.9375 C 199.21702 103.9375 190.55876 104.99955 182.2207 107.12305 C 165.9298 111.27194 151.24121 119.11996 138.4375 130.51758 C 136.67172 132.08943 132.19208 136.56913 130.58594 138.36914 C 126.13888 143.35298 121.85811 149.15296 118.66992 154.51367 C 111.57451 166.44404 107.03271 179.15775 105.0625 192.60352 C 100.87581 221.17557 108.58622 249.95633 126.45117 272.4375 C 133.81462 281.70365 142.8998 289.83164 152.78711 295.99609 C 168.38054 305.71817 186.02891 311.11367 204.21875 311.72266 C 207.69689 311.83856 207.8809 311.83925 211.11523 311.72852 C 221.44437 311.37494 230.65133 309.76547 240.2168 306.64258 C 263.73217 298.96537 284.05503 282.79279 296.85352 261.57227 C 304.07096 249.6054 308.81351 236.33717 310.74609 222.69922 C 313.49968 203.26748 310.84164 183.7687 303.00977 165.95703 C 302.11593 163.92426 300.01399 159.67852 298.94922 157.75391 C 295.17014 150.92296 290.48479 144.33278 285.16602 138.36914 C 283.57586 136.5862 279.09774 132.10904 277.31445 130.51953 C 264.56283 119.15354 249.80287 111.26754 233.5293 107.12305 C 225.19124 104.99955 216.53298 103.9375 207.875 103.9375 z M 243.17773 132.81836 C 244.03051 132.81857 244.8897 132.87542 245.54688 132.98828 C 251.23717 133.96556 255.71079 138.362 256.85156 144.0957 C 257.10527 145.36893 257.10414 148.02818 256.84961 149.23633 C 255.60265 155.15492 251.07153 159.49493 245.23242 160.36523 L 245.23242 160.36719 C 240.84856 161.0206 236.37768 159.49943 233.29492 156.30664 C 232.1672 155.13865 231.53216 154.26075 230.85547 152.93164 C 229.82801 150.91359 229.36949 148.93686 229.37695 146.57227 C 229.38406 144.24338 229.83354 142.39318 230.90039 140.30273 C 232.85268 136.47729 236.5639 133.74749 240.84375 132.98828 C 241.47782 132.87563 242.32496 132.81815 243.17773 132.81836 z M 207.93945 147.61914 C 209.99213 147.61904 212.04048 147.68291 213.30859 147.81055 C 216.62475 148.14431 219.21144 148.57847 222.2207 149.30469 C 223.07015 149.50969 223.83349 149.7456 223.91797 149.83008 C 224.00248 149.91458 224.07227 150.08897 224.07227 150.21875 C 224.07227 150.61063 224.76258 152.98878 225.16797 153.99219 C 226.70345 157.79276 229.56088 161.147 233.08594 163.28711 C 237.91275 166.21755 243.63141 166.90726 249.08984 165.2168 L 250.12305 164.89648 L 251.00586 165.76562 C 252.07414 166.81985 253.72564 168.6684 254.86328 170.08398 C 261.6981 178.58857 266.12242 188.91351 267.59766 199.79492 C 267.90106 202.0297 268.03322 203.83236 267.89844 203.91406 C 267.84712 203.94517 263.71307 204.02499 258.71289 204.08984 C 253.71271 204.1548 249.37401 204.22231 249.07031 204.24023 C 248.7666 204.25826 248.45262 204.22256 248.37305 204.16016 C 248.28173 204.08855 248.16544 203.54538 248.05859 202.6875 C 247.70864 199.8776 246.91197 196.61425 245.92383 193.93945 C 242.28709 184.09508 235.30756 176.28436 225.9707 171.60938 C 215.27164 166.25233 203.00097 165.91331 191.76758 170.66602 C 191.32841 170.85187 190.9062 170.97809 190.82812 170.94727 C 190.75002 170.91649 188.55386 167.07057 185.94922 162.40039 C 182.0265 155.36688 181.23729 153.88575 181.35156 153.77148 C 181.5189 153.60415 183.63346 152.64459 185.375 151.94531 C 190.84263 149.74993 196.32615 148.42925 202.54688 147.81055 C 203.83126 147.68278 205.88678 147.61924 207.93945 147.61914 z M 174.47852 157.8125 C 174.64532 157.97933 184.46893 174.53905 184.4668 174.65039 C 184.46556 174.72558 184.26452 174.92629 184.02148 175.09766 C 181.96609 176.547 178.63196 179.64293 176.92773 181.68359 C 171.66275 187.98795 168.55821 195.21921 167.57422 203.4707 C 167.32362 205.57207 167.32348 210.14915 167.57422 212.24805 C 168.61988 221.00104 171.99166 228.50113 177.81836 235.0293 C 179.44427 236.85095 182.51855 239.61115 184.07617 240.64844 C 184.29169 240.79198 184.46875 240.97447 184.46875 241.05469 C 184.46875 241.13486 182.22237 244.96036 179.47852 249.55664 C 176.73468 254.15291 174.43981 257.91406 174.37891 257.91406 C 174.31796 257.91406 173.6362 257.46205 172.86328 256.91016 C 162.39029 249.4319 154.44448 238.59489 150.53516 226.45898 C 150.19286 225.3964 149.82662 224.18861 149.7207 223.77344 L 149.52734 223.01758 L 150.62891 221.94336 C 151.9211 220.68328 152.6106 219.86073 153.46094 218.57031 C 154.92712 216.34532 155.91471 213.84189 156.42578 211.04688 C 156.64301 209.85892 156.72269 207.18529 156.58008 205.88672 C 156.05542 201.1093 153.81886 196.64865 150.38086 193.51758 L 149.51953 192.73242 L 149.7168 191.96289 C 150.50638 188.86883 152.10845 184.6842 153.85352 181.16016 C 156.8994 175.00918 160.36074 170.19945 165.28711 165.26953 C 167.74163 162.81325 169.34558 161.41888 171.96875 159.45898 C 173.72308 158.14825 174.38124 157.71533 174.47852 157.8125 z M 206.53906 183.37695 L 212.30078 183.37695 L 212.30078 189.13867 C 219.59678 189.26667 224.14062 189.13817 224.14062 199.82617 L 218.38086 199.82617 C 218.38086 196.81817 216.26878 195.02644 212.30078 194.89844 L 212.30078 204.49805 C 218.31678 204.69005 224.14062 204.49769 224.14062 214.92969 C 224.14062 225.61769 219.59678 225.48919 212.30078 225.61719 L 212.30078 231.37695 L 206.53906 231.37695 L 206.53906 225.61719 C 199.24306 225.48919 194.63672 225.61769 194.63672 214.92969 L 200.39648 214.92969 C 200.39648 219.85769 202.57106 219.72942 206.53906 219.85742 L 206.53906 210.25781 C 200.52306 210.06581 194.63672 210.25817 194.63672 199.82617 C 194.63672 189.13817 199.24306 189.26667 206.53906 189.13867 L 206.53906 183.37695 z M 138.21289 194.0332 C 142.08097 194.32153 145.78578 196.22687 148.23633 199.48242 C 149.5549 201.23413 150.50275 203.4021 150.86719 205.49609 C 151.07656 206.70051 151.07583 208.99393 150.86523 210.21094 C 149.88014 215.90382 145.43226 220.40896 139.72461 221.49414 C 139.24666 221.58501 138.29124 221.68012 137.60156 221.70508 C 131.57237 221.92364 126.01577 218.05994 124.06641 212.29297 C 123.51728 210.66841 123.39258 209.85164 123.39258 207.85938 C 123.39258 205.86758 123.51795 205.04055 124.0625 203.44336 C 125.30486 199.79956 127.81946 196.98041 131.30859 195.31836 C 133.51204 194.26875 135.89204 193.8602 138.21289 194.0332 z M 206.53906 194.89844 C 202.57106 195.02644 200.39648 194.89817 200.39648 199.82617 C 200.39648 204.49817 202.57106 204.37005 206.53906 204.49805 L 206.53906 194.89844 z M 212.30078 210.25781 L 212.30078 219.85742 C 216.26878 219.72942 218.38086 219.85769 218.38086 214.92969 C 218.38086 210.25769 216.26878 210.38581 212.30078 210.25781 z M 248.4082 211.53711 C 248.57877 211.4583 258.19541 211.55624 264.51367 211.70117 L 267.9082 211.7793 L 267.94141 212.28711 C 267.98133 212.91454 267.72665 215.21993 267.38086 217.36133 C 265.69703 227.78854 261.40375 237.4877 254.86328 245.63672 C 253.78277 246.98296 252.0075 248.96562 250.95117 250.00781 L 250.12109 250.82812 L 249.12695 250.50977 C 244.22448 248.93937 238.93687 249.38621 234.3125 251.76172 C 232.53576 252.67442 231.22428 253.60375 229.83594 254.93555 C 227.64011 257.04196 226.1769 259.1938 225.11328 261.88086 C 224.68906 262.9526 224.07653 265.07674 224.07227 265.49023 C 224.06823 265.86231 223.91282 265.96721 222.98438 266.22266 C 220.40556 266.93215 216.79508 267.56341 213.41406 267.89648 C 211.46628 268.08834 206.27095 268.17581 204.34766 268.04883 C 196.86483 267.55472 189.60011 265.74043 182.79688 262.66992 C 182.07846 262.34568 181.42815 262.02041 181.35156 261.94531 C 181.2361 261.8321 182.02209 260.35856 185.96094 253.30469 C 190.58622 245.02152 190.71575 244.80055 191.00977 244.8125 C 191.17579 244.81926 191.83069 245.04479 192.46289 245.31445 C 194.83939 246.32817 198.12265 247.28789 200.875 247.77344 C 211.90267 249.71881 223.31006 246.97227 232.27539 240.21484 C 235.50086 237.78372 238.71281 234.47632 240.95703 231.27344 C 242.63936 228.87248 244.57759 225.29878 245.55078 222.80273 C 246.81237 219.56703 247.7092 216.0114 248.11523 212.63672 C 248.2063 211.87983 248.2827 211.59503 248.4082 211.53711 z M 242.26953 255.23633 C 244.00913 255.1151 245.77064 255.32839 247.48047 255.88086 C 252.28071 257.43189 255.77596 261.38641 256.84961 266.48242 C 257.10469 267.69212 257.1055 270.35229 256.85156 271.62891 C 256.29534 274.42522 255.0316 276.79355 253.01758 278.82031 C 251.23651 280.61264 249.06969 281.8662 246.67383 282.49023 C 245.55555 282.78153 245.26292 282.81555 243.50781 282.84766 C 241.30965 282.88795 240.55372 282.78442 238.8457 282.21289 C 235.25792 281.01234 232.44273 278.55918 230.80859 275.20898 C 229.77594 273.09192 229.38051 271.42325 229.37305 269.14844 C 229.36553 266.93297 229.75562 265.12714 230.66797 263.15234 C 231.9397 260.39969 234.36549 257.96223 237.1875 256.59961 C 238.81304 255.8147 240.52993 255.35755 242.26953 255.23633 z "
                       transform="matrix(0.93750008,0,0,0.93750008,242.4372,317.83039)" />
                  </g>
                </g>
              </g>
            </g>
          </g>
        </g>
      </g>
    </g>
  </g>
</svg>
